# xmcd
#
# Track frame offsets: 
#        150
#        17518
#        35309
#        54294
#        84155
#        108513
#        127218
#        143490
#        166426
#        178415
#        191444
#        205125
#        224765
#        254237
#        288722
#        307099
#
# Disc length: 4321 seconds
#
# Revision: 0
# Processed by: cddbd v1.5.2PL0 Copyright (c) Steve Scherf et al.
# Submitted via: ExactAudioCopy v0.99pb5
#
DISCID=f510df10
DTITLE=British Electric Foundation - Music Of Quality And Distinction 
DTITLE=Volume 3 - Dark [CD 1)
DYEAR=2013
DGENRE=Synthpop
TTITLE0=Every Time I See You I Go Wild
TTITLE1=Didn't I Blow Your Mind This Time
TTITLE2=Don't Wanna Know
TTITLE3=Picture This
TTITLE4=Breathing
TTITLE5=It Was A Very Good Year
TTITLE6=I Wanna Be Your Dog
TTITLE7=The Same Love That Made Me Laugh
TTITLE8=God Only Knows
TTITLE9=Make Up
TTITLE10=Just Walk In My Shoes
TTITLE11=The Look Of Love
TTITLE12=Party Fears Two
TTITLE13=Smalltown Boy
TTITLE14=The Day Before You Came
TTITLE15=Co-Pilot To Pilot
EXTD=
EXTT0=
EXTT1=
EXTT2=
EXTT3=
EXTT4=
EXTT5=
EXTT6=
EXTT7=
EXTT8=
EXTT9=
EXTT10=
EXTT11=
EXTT12=
EXTT13=
EXTT14=
EXTT15=
PLAYORDER=
